<?xml version="1.0" encoding="utf-8"?>
<!-- Generator: Adobe Illustrator 24.1.2, SVG Export Plug-In . SVG Version: 6.00 Build 0)  -->
<svg version="1.1" id="Calque_1" xmlns="http://www.w3.org/2000/svg" xmlns:xlink="http://www.w3.org/1999/xlink" x="0px" y="0px"
	 viewBox="0 0 792 612" style="enable-background:new 0 0 792 612;" xml:space="preserve">
<style type="text/css">
	.st0{clip-path:url(#SVGID_2_);fill:#FEF3E3;}
	.st1{clip-path:url(#SVGID_2_);}
	.st2{clip-path:url(#SVGID_4_);fill:#FFF3E3;}
	.st3{clip-path:url(#SVGID_4_);fill:#3C8787;}
	.st4{clip-path:url(#SVGID_4_);}
	.st5{clip-path:url(#SVGID_6_);fill:#3C8787;}
</style>
<g>
	<defs>
		<circle id="SVGID_1_" cx="400.21" cy="304.92" r="298.47"/>
	</defs>
	<clipPath id="SVGID_2_">
		<use xlink:href="#SVGID_1_"  style="overflow:visible;"/>
	</clipPath>
	<rect x="68.99" y="-90.06" class="st0" width="662.15" height="766.56"/>
	<g class="st1">
		<g>
			<defs>
				<rect id="SVGID_3_" x="122.21" y="96.53" width="555.69" height="416.77"/>
			</defs>
			<clipPath id="SVGID_4_">
				<use xlink:href="#SVGID_3_"  style="overflow:visible;"/>
			</clipPath>
			<rect x="122.21" y="96.53" class="st2" width="555.69" height="416.77"/>
			<polygon class="st3" points="267.5,174.77 267.5,288.37 260.52,288.37 191.71,215.18 191.71,288.37 171.75,288.37 171.75,174.77 
				178.73,174.77 247.54,249.1 247.54,174.77 			"/>
			<polygon class="st3" points="511.32,193.11 469.83,193.11 469.83,288.37 449.87,288.37 449.87,193.11 408.21,193.11 
				408.21,174.77 511.32,174.77 			"/>
			<g class="st4">
				<defs>
					<rect id="SVGID_5_" x="122.21" y="96.53" width="555.69" height="416.77"/>
				</defs>
				<clipPath id="SVGID_6_">
					<use xlink:href="#SVGID_5_"  style="overflow:visible;"/>
				</clipPath>
				<path class="st5" d="M268.15,432.48l-1.3,1.95h-20.13l-32.3-46.58c-5.35,1.79-11.36,3.25-17.53,4.06l-5.19,0.81v41.71h-19.96
					V320.83h19.96v54.21l4.38-0.65c25.32-5.19,42.03-21.42,42.03-46.41v-7.14h20.29v7.79c0,22.07-9.74,39.44-26.29,50.64
					L268.15,432.48z"/>
				<polygon class="st5" points="509.54,320.83 509.54,434.43 502.56,434.43 433.75,361.24 433.75,434.43 413.79,434.43 
					413.79,320.83 420.76,320.83 489.58,395.16 489.58,320.83 				"/>
				<path class="st5" d="M531.67,382.18v-61.35h19.96v61.83c0,20.13,11.04,33.43,28.73,33.43c17.69,0,28.07-13.47,28.07-33.92
					v-61.35h19.96v61.35c0,31.81-19.47,52.26-48.53,52.26C550.99,434.43,531.67,413.99,531.67,382.18"/>
				<path class="st5" d="M370.01,248.57v39.8h19.96v-61.35c0-31.81-19.31-52.26-48.2-52.26c-29.05,0-48.53,20.45-48.53,52.26v61.35
					h19.96v-39.05h15.12v-0.02c4.51-0.12,8.13-3.5,8.13-7.69c0-4.18-3.62-7.56-8.13-7.69v-0.02h-15.12v-6.88
					c0-20.45,10.39-33.92,28.07-33.92c17.69,0,28.73,13.31,28.73,33.43v6.68"/>
				<path class="st5" d="M370.01,395.05v39.8h19.96v-61.35c0-31.81-19.31-52.26-48.2-52.26c-29.05,0-48.53,20.45-48.53,52.26v61.35
					h19.96V395.8h15.12v-0.02c4.51-0.12,8.13-3.5,8.13-7.69c0-4.18-3.62-7.56-8.13-7.69v-0.02h-15.12v-6.88
					c0-20.45,10.39-33.92,28.07-33.92c17.69,0,28.73,13.31,28.73,33.43v6.68"/>
				<path class="st5" d="M608.44,248.57v39.8h19.96v-61.35c0-31.81-19.31-52.26-48.2-52.26c-29.05,0-48.53,20.45-48.53,52.26v61.35
					h19.96v-39.05h15.12v-0.02c4.51-0.12,8.13-3.5,8.13-7.69s-3.62-7.56-8.13-7.69v-0.02h-15.12v-6.88
					c0-20.45,10.39-33.92,28.07-33.92c17.69,0,28.73,13.31,28.73,33.43v6.68"/>
			</g>
		</g>
	</g>
</g>
</svg>
