<?xml version="1.0" encoding="utf-8"?>
<!-- Generator: Adobe Illustrator 24.1.0, SVG Export Plug-In . SVG Version: 6.00 Build 0)  -->
<svg version="1.1" id="Calque_1" xmlns="http://www.w3.org/2000/svg" xmlns:xlink="http://www.w3.org/1999/xlink" x="0px" y="0px"
	 viewBox="0 0 1900 1425" style="enable-background:new 0 0 1900 1425;" xml:space="preserve">
<style type="text/css">
	.st0{fill:#FFFFFF;}
</style>
<path class="st0" d="M496.76,267.49v388.43h-23.86L237.62,405.66v250.26h-68.25V267.49h23.86L428.5,521.64V267.49H496.76z"/>
<path class="st0" d="M1330.42,330.2h-141.87v325.73h-68.25V330.2H977.88v-62.71h352.55V330.2z"/>
<path class="st0" d="M498.97,1148.68l-4.43,6.67h-68.81L315.3,996.08c-18.31,6.11-38.84,11.1-59.93,13.87l-17.76,2.77v142.61h-68.25
	V766.91h68.25v185.34l14.98-2.22c86.56-17.76,143.71-73.25,143.71-158.7v-24.42h69.36v26.63c0,75.47-33.29,134.85-89.89,173.13
	L498.97,1148.68z"/>
<path class="st0" d="M1324.31,766.91v388.43h-23.85l-235.28-250.26v250.26h-68.25V766.91h23.86l235.28,254.15V766.91H1324.31z"/>
<path class="st0" d="M1400.01,976.66V766.91h68.25v211.42c0,68.81,37.74,114.32,98.22,114.32c60.48,0,95.99-46.06,95.99-115.98
	V766.91h68.25v209.76c0,108.76-66.58,178.68-165.92,178.68C1466.04,1155.34,1400.01,1085.43,1400.01,976.66z"/>
<path class="st0" d="M847.24,519.83v136.1h68.25V446.17c0-108.76-66.03-178.68-164.8-178.68c-99.33,0-165.92,69.92-165.92,178.68
	v209.76h68.25V522.4h51.69v-0.08c15.42-0.41,27.81-11.98,27.81-26.28c0-14.29-12.38-25.86-27.81-26.28v-0.08h-51.69v-23.52
	c0-69.92,35.51-115.98,95.99-115.98c60.49,0,98.22,45.5,98.22,114.32v22.84"/>
<path class="st0" d="M847.24,1020.69v136.1h68.25V947.03c0-108.76-66.03-178.68-164.8-178.68c-99.33,0-165.92,69.92-165.92,178.68
	v209.76h68.25v-133.53h51.69v-0.08c15.42-0.41,27.81-11.98,27.81-26.28c0-14.29-12.38-25.86-27.81-26.28v-0.08h-51.69v-23.52
	c0-69.92,35.51-115.98,95.99-115.98c60.49,0,98.22,45.5,98.22,114.32v22.84"/>
<path class="st0" d="M1662.47,519.83v136.1h68.25V446.17c0-108.76-66.03-178.68-164.8-178.68c-99.33,0-165.92,69.92-165.92,178.68
	v209.76h68.25V522.4h51.69v-0.08c15.42-0.41,27.81-11.98,27.81-26.28s-12.38-25.86-27.81-26.28v-0.08h-51.69v-23.52
	c0-69.92,35.51-115.98,95.99-115.98c60.49,0,98.22,45.5,98.22,114.32v22.84"/>
</svg>
